<?xml version="1.0" encoding="utf-8"?>
<!-- Generator: Adobe Illustrator 25.0.0, SVG Export Plug-In . SVG Version: 6.00 Build 0)  -->
<svg version="1.1" id="Camada_1" xmlns="http://www.w3.org/2000/svg" xmlns:xlink="http://www.w3.org/1999/xlink" x="0px" y="0px"
	 viewBox="0 0 150 50" style="enable-background:new 0 0 150 50;" xml:space="preserve">
<style type="text/css">
	.st0{fill:#157E41;}
</style>
<g>
	<path class="st0" d="M20.56,29.15L20.56,29.15c-0.13,0.57-0.64,0.97-1.22,0.97H5.94c-0.36,0-0.65-0.29-0.65-0.65
		c0-0.12,0.03-0.24,0.1-0.34l0.43-0.68c0.08-0.12,0.22-0.2,0.36-0.19l14.3,0.79c0.05,0,0.08,0.04,0.08,0.09
		C20.56,29.14,20.56,29.14,20.56,29.15z M6.27,27.59l1.49-2.01c0.47-0.64,1.26-0.98,2.05-0.88l10.87,1.39
		c0.39,0.07,0.68,0.31,0.59,0.63l-0.57,1.7c-0.05,0.14-0.18,0.22-0.32,0.22L6.47,28c-0.14,0-0.26-0.12-0.25-0.26
		C6.22,27.68,6.24,27.63,6.27,27.59z M5.71,28.07c-0.47,0.69-1.4,0.87-2.09,0.4c-0.13-0.09-0.25-0.2-0.35-0.32
		C3,27.77,2.63,27.47,2.2,27.27c-0.22-0.11-0.46-0.2-0.7-0.25c-0.81-0.19-1.31-1-1.12-1.8C0.4,25.14,0.43,25.07,0.46,25L7.67,6.89
		C7.87,6.36,8.36,6,8.93,5.96l0,0c0.82-0.06,1.53,0.55,1.59,1.36c0.01,0.11,0,0.23-0.01,0.34L8.1,24.38
		c-0.03,0.23-0.12,0.45-0.25,0.64L5.71,28.07z M7.81,6.12C8.32,5.95,8.86,5.89,9.4,5.94c0.59,0.07,0.75,0.3,1,0.43
		c0.21,0.1,0.46,0,0.55-0.2c0.01-0.02,0.01-0.03,0.02-0.05l1.72-5.37c0.08-0.33-0.13-0.65-0.46-0.73C12.18,0.01,12.14,0,12.09,0
		H1.85C1.57,0,1.32,0.2,1.25,0.47L1.12,1.07c-0.13,0.55,0.22,1.1,0.77,1.23c0.08,0.02,0.16,0.03,0.25,0.03l6.46-0.24
		c0.23-0.01,0.43,0.17,0.43,0.41c0,0.05-0.01,0.1-0.02,0.15l-1.19,3.5 M2.61,28.63c0,0.72-0.59,1.3-1.31,1.3S0,29.34,0,28.62
		c0-0.72,0.59-1.3,1.31-1.3c0.72,0,1.3,0.58,1.3,1.3L2.61,28.63z"/>
	<path class="st0" d="M34.09,9.56l-4.65,20.09c-0.06,0.28-0.31,0.47-0.6,0.47h-5.62c-0.34,0-0.61-0.28-0.61-0.61
		c0-0.05,0.01-0.09,0.02-0.13l4.65-20.09c0.06-0.28,0.31-0.47,0.6-0.47h5.62c0.34,0,0.61,0.27,0.61,0.6
		C34.11,9.46,34.1,9.51,34.09,9.56z M36.08,1.42l-0.89,3.81c-0.06,0.27-0.3,0.46-0.57,0.46h-5.88c-0.33,0-0.6-0.27-0.6-0.61
		c0-0.04,0.01-0.09,0.02-0.13l0.9-3.91c0.06-0.27,0.31-0.47,0.59-0.47h5.86c0,0,0.6,0.43,0.6,0.76C36.09,1.37,36.08,1.42,36.08,1.42
		L36.08,1.42z"/>
	<path class="st0" d="M73.75,13.48c0,0.42-0.03,0.84-0.09,1.26c-0.06,0.47-0.15,0.94-0.25,1.41l-3.07,13.22
		c-0.06,0.27-0.31,0.47-0.59,0.47h-5.5c0,0-0.68-0.27-0.59-0.65l2.3-9.86c0.16-0.73,0.31-1.43,0.45-2.1
		c0.12-0.53,0.18-1.08,0.2-1.62c0-0.73-0.2-1.27-0.6-1.61c-0.4-0.34-1.11-0.51-2.14-0.51c-0.57,0.02-1.14,0.14-1.66,0.35
		c-0.68,0.27-1.35,0.57-1.99,0.92c-0.16,0.08-0.27,0.23-0.32,0.41l-3.3,14.31c-0.09,0.28-0.59,0.66-0.59,0.66h-5.66
		c0,0-0.64-0.53-0.59-0.92l2.3-9.86c0.14-0.62,0.28-1.28,0.42-2.01c0.12-0.54,0.19-1.09,0.21-1.65c0-0.77-0.19-1.33-0.57-1.67
		s-1.1-0.52-2.14-0.52c-0.61,0.02-1.21,0.14-1.77,0.38c-0.66,0.26-1.3,0.56-1.92,0.89c-0.16,0.08-0.27,0.23-0.32,0.41l-3.3,14.31
		c-0.07,0.28-0.59,0.37-0.59,0.37h-5.4c-0.33,0-0.6-0.27-0.6-0.61c0-0.04,0.01-0.09,0.02-0.13l4.6-19.82
		c0.06-0.27,0.31-0.47,0.59-0.47h5.5c0.34,0,0.61,0.27,0.61,0.61c0,0.05-0.01,0.1-0.02,0.15l-0.03,0.11
		c-0.04,0.19-0.01,0.39,0.11,0.53c0.21,0.25,0.54,0.28,0.79,0.13c0.8-0.5,1.62-0.94,2.47-1.34c1.12-0.52,2.34-0.78,3.58-0.77
		c1.23-0.04,2.45,0.28,3.49,0.93c0.76,0.5,1.36,1.21,1.72,2.04c0.14,0.3,0.5,0.43,0.81,0.29c0.03-0.01,0.06-0.03,0.09-0.05
		c1.21-0.87,2.5-1.63,3.85-2.28c1.2-0.58,2.5-0.89,3.83-0.92c1.84,0,3.25,0.46,4.22,1.37C73.27,10.52,73.75,11.81,73.75,13.48z"/>
	<path class="st0" d="M101.68,15.32c0,1.93-0.32,3.85-0.95,5.67c-0.57,1.72-1.45,3.32-2.59,4.73c-1.07,1.32-2.38,2.43-3.87,3.25
		c-1.49,0.79-3.15,1.2-4.84,1.17c-1.06,0.01-2.11-0.12-3.13-0.39c-0.64-0.17-1.27-0.41-1.87-0.7c-0.14-0.07-0.31-0.1-0.47-0.04
		c-0.21,0.07-0.36,0.24-0.4,0.44l-1.75,7.58c-0.06,0.28-0.31,0.47-0.59,0.47h-5.58c-0.34,0-0.61-0.27-0.61-0.61
		c0-0.05,0.01-0.09,0.02-0.13l6.41-27.77c0.06-0.28,0.31-0.47,0.59-0.47h5.59c0.34,0,0.61,0.27,0.61,0.61
		c0,0.05-0.01,0.09-0.02,0.13l0,0c-0.08,0.33,0.13,0.65,0.45,0.73c0.16,0.04,0.32,0.01,0.46-0.08c0.74-0.47,1.51-0.88,2.31-1.24
		c1.14-0.5,2.37-0.75,3.61-0.74c2.14,0,3.78,0.65,4.93,1.95C101.11,11.2,101.68,13.01,101.68,15.32z M92.73,22.93
		c0.57-0.85,0.99-1.8,1.25-2.79c0.3-1.13,0.44-2.3,0.44-3.47c0-1.14-0.25-2.03-0.76-2.64c-0.5-0.61-1.4-0.91-2.7-0.91
		c-0.67,0-1.33,0.12-1.96,0.35c-0.61,0.23-1.21,0.49-1.79,0.79c-0.16,0.08-0.27,0.23-0.31,0.4l-2.28,9.89
		c-0.07,0.3,0.1,0.61,0.4,0.71c0.29,0.09,0.59,0.16,0.89,0.21c0.55,0.1,1.1,0.14,1.65,0.14c1.06,0.02,2.11-0.23,3.04-0.74
		C91.46,24.41,92.19,23.74,92.73,22.93L92.73,22.93z"/>
	<path class="st0" d="M116.75,29.32c0.08-0.32-0.12-0.65-0.45-0.73c-0.16-0.04-0.33-0.01-0.47,0.08l-0.28,0.19
		c-0.54,0.35-1.1,0.67-1.68,0.93c-0.65,0.27-1.31,0.49-1.99,0.66c-0.84,0.17-1.7,0.25-2.56,0.23c-1.76,0-3.2-0.5-4.32-1.49
		c-1.11-0.98-1.72-2.4-1.68-3.87c-0.05-1.51,0.37-2.99,1.19-4.26c0.89-1.25,2.11-2.21,3.53-2.79c1.67-0.71,3.42-1.19,5.22-1.42
		c2.02-0.29,4.2-0.5,6.56-0.64c0-0.08,0.04-0.2,0.08-0.37c0.04-0.19,0.06-0.38,0.06-0.57c0.04-0.83-0.46-1.6-1.25-1.88
		c-0.83-0.36-2.07-0.54-3.72-0.54c-1.25,0.02-2.5,0.21-3.7,0.57c-1.31,0.37-2.3,0.67-2.98,0.92c-0.05,0.02-0.1,0.03-0.15,0.03l0,0
		c-0.25,0-0.45-0.2-0.45-0.45c0-0.03,0-0.06,0.01-0.09l0.82-4.11c0.04-0.23,0.22-0.42,0.46-0.47c0.79-0.18,1.89-0.37,3.3-0.59
		c1.64-0.25,3.31-0.38,4.97-0.38c3.33,0,5.77,0.43,7.32,1.3c1.55,0.87,2.33,2.22,2.33,4.05c0,0.25-0.02,0.57-0.07,0.99
		c-0.04,0.36-0.1,0.71-0.18,1.06l-3.21,13.98c-0.06,0.28-0.31,0.47-0.59,0.47h-5.58c-0.31,0-0.57-0.26-0.57-0.57
		c0-0.06,0.01-0.12,0.03-0.17L116.75,29.32z M118.71,20.72c0.08-0.33-0.13-0.65-0.46-0.73c-0.06-0.01-0.13-0.02-0.19-0.01
		c-0.9,0.08-1.76,0.18-2.58,0.28c-0.92,0.11-1.83,0.31-2.72,0.61c-0.69,0.22-1.3,0.63-1.76,1.17c-0.43,0.58-0.64,1.29-0.61,2.01
		c0,0.73,0.27,1.24,0.81,1.54c0.54,0.3,1.32,0.45,2.35,0.45c0.74-0.02,1.47-0.17,2.16-0.46c0.69-0.28,1.35-0.63,1.96-1.04
		c0.13-0.09,0.22-0.22,0.25-0.37L118.71,20.72z"/>
	<path class="st0" d="M132.47,27.73c0.03,0.19,0.21,0.31,0.4,0.28c0.09-0.02,0.17-0.06,0.22-0.14l4.44-6.45
		c0.32-0.44,0.59-0.87,0.5-1.4c-0.46-2.77-1.87-11.54-1.87-11.54c-0.04-0.3-0.3-0.53-0.6-0.53h-5.3c-0.53,0-0.96,0.43-0.95,0.96
		c0,0.05,0,0.1,0.01,0.15L132.47,27.73z"/>
	<path class="st0" d="M149.3,7.96h-2.01c-0.25,0-0.49,0.13-0.62,0.36l-15.93,24.62c-0.11,0.17-0.06,0.4,0.11,0.51
		c0.03,0.02,0.06,0.03,0.09,0.04c0.32,0.07,0.61,0.21,0.85,0.42c0.34,0.36,0.65,0.75,0.91,1.16c0.42,0.13,0.57-0.02,0.82-0.39
		l16.37-25.62c0.21-0.33,0.11-0.77-0.22-0.98C149.56,8,149.43,7.96,149.3,7.96z"/>
	<path class="st0" d="M131.46,34.22c-0.35-0.21-0.74-0.36-1.14-0.45c-0.06-0.02-0.13-0.01-0.19,0.03c-0.69,0.42-1.08,0.7-3.13,2.23
		c-0.13,0.09-0.15,0.27-0.06,0.4c0.05,0.06,0.12,0.11,0.2,0.11c0.6,0.07,1.2,0.19,1.78,0.36c0.55,0.25,1.88,1.4,1.88,1.4
		c0.16,0.03,0.32-0.06,0.36-0.22l1.14-2.22c0.09-0.17,0.1-0.37,0.02-0.54C132.14,34.88,131.84,34.5,131.46,34.22z"/>
	<path class="st0" d="M128.77,38.44c-0.61-0.33-1.25-0.61-1.9-0.85c-0.83-0.16-1.05,0.05-1.38,0.32c-1.17,0.95-4.05,4.5-5.7,5.23
		c-1.99,0.88-6.57-1.26-7.35-1.4c-0.1-0.02-0.2,0-0.28,0.07c-0.36,0.31-0.58,0.76-0.62,1.23c0.02,0.43,0.1,0.85,0.24,1.25
		c0.46,1.32,5.08,3,0,0.88c0.08,0.47,0.14,0.71,0.16,0.78c0.52,2.17,2.46,3.7,4.69,3.71c0,0,1.93,0.05,3.92,0.07l0,0
		c1.89,0,3.83-0.02,4.21-0.17c1.14-0.47,2.42-1.56,2.75-2.56l2.4-7.12C129.9,39.86,130.07,39.32,128.77,38.44z"/>
	<path class="st0" d="M110.46,39.94c-0.17,0.18-2.43-2.78-4.55-1.62c-0.72,0.4-0.85-0.63-1.69-1.42c-1.78-1.7-4.42-2.46-5.51,0.79
		c-0.49,1.46-0.14,3.52-0.3,4.03c-0.16,0.52-1.1-2.53-1.01-3.88c0.42-6.04,6.13-3.46,7.63-2.03c0.82,0.79,0.65,1.2,1.11,1.09
		C108.14,36.41,111.04,39.34,110.46,39.94z"/>
	<path class="st0" d="M128.34,49.98L128.34,49.98c-0.06-0.04,0.83-0.21,2.14-0.93c1-0.55,0.95-1.23,1.49-1.28
		c0.08-0.01,0.17-0.01,0.25,0c0.35,0.06,0.51,0.4,1.14,0.36c0.96-0.05,2.19-1.16,2.48-2.23c0.32-1.19-0.42-2-0.63-2.44
		c-0.15-0.3,1.71,1.38,1.84,2.4c0.06,1.02-0.42,1.99-1.26,2.56c-1.03,0.65-1.99,0.74-2.69,0.47c-0.26-0.13-0.56-0.18-0.85-0.13
		c-0.28,0.14-0.54,0.32-0.77,0.53c-0.38,0.28-0.82,0.47-1.29,0.54C129.57,49.95,128.96,50,128.34,49.98z"/>
	<path class="st0" d="M137.25,44.18c-0.03,0.04,0.64-0.26,0.19-1.42c-0.34-0.89-0.9-0.92-0.88-1.37c0-0.07,0.01-0.14,0.03-0.2
		c0.09-0.28,0.39-0.38,0.43-0.9c0.06-0.8-0.7-1.93-1.55-2.29c-0.94-0.4-1.68,0.12-2.07,0.24c-0.26,0.09,1.33-1.24,2.17-1.24
		c0.84,0.06,1.58,0.57,1.95,1.32c0.42,0.93,0.38,1.73,0.08,2.27c-0.14,0.2-0.21,0.44-0.2,0.69c0.01,0.2,0.1,0.39,0.26,0.53
		c0.34,0.35,0.54,0.8,0.59,1.28C138.22,43.5,137.25,44.18,137.25,44.18z"/>
	<path class="st0" d="M101.81,49.09c-0.33-0.03-3.93,1.14-5.5-1.76c-0.53-0.99-1.2,0.02-2.47,0.24c-2.71,0.48-8.17-2.42-5.6-5.98
		c2.01-2.79,5.16-2.18,4.55-2.32c-0.85-0.2-5.33-0.25-6.51,2.65c-2.59,6.38,6.2,8.05,8.28,7.43c1.23-0.37,0.84-0.78,1.25-0.28
		C97.6,51.12,102.63,49.17,101.81,49.09z"/>
</g>
</svg>
